<svg width="192" height="121" viewBox="0 0 192 121" fill="none" xmlns="http://www.w3.org/2000/svg">
<circle cx="69.2677" cy="16.1998" r="16.1998" fill="#F59E0B"/>
<path d="M164.185 37.0405C165.706 37.9187 165.706 40.1143 164.185 40.9925L143.992 52.6508C142.471 53.529 140.57 52.4312 140.57 50.6748V27.3582C140.57 25.6018 142.471 24.504 143.992 25.3822L164.185 37.0405Z" fill="#991B1B"/>
<path d="M138.154 4.39434L109.978 120.252H93.8665L69.097 67.638L44.6899 120.208H27.9978L0 0.201776H18.6027L39.2714 88.5309L60.7614 42.246L77.2968 42.2019L99.2797 88.8963L120.397 0.167908L138.154 4.39434Z" fill="#172554"/>
<path d="M152.033 0C155.745 0 159.438 0.529493 163.001 1.57266L164.241 1.93585C203.036 13.295 200.651 69.0339 161.028 77.0384C158.505 77.5482 155.937 77.8049 153.362 77.8049H134.98V59.5515H153.362C154.723 59.5515 156.08 59.4159 157.414 59.1465C178.355 54.9158 179.615 25.4574 159.112 19.4539L157.872 19.0907C155.975 18.5354 154.009 18.2533 152.033 18.2533H120.377V0H152.033Z" fill="#172554"/>
</svg>
